<?xml version="1.0" encoding="UTF-8"?>
<svg version="1.1" xmlns="http://www.w3.org/2000/svg" width="192" height="192">
<path d="M0 0 C63.36 0 126.72 0 192 0 C192 63.36 192 126.72 192 192 C128.64 192 65.28 192 0 192 C0 128.64 0 65.28 0 0 Z " fill="#000973" transform="translate(0,0)"/>
<path d="M0 0 C5.38624177 -0.09291073 10.76959451 -0.17220639 16.15600586 -0.21972656 C17.97999601 -0.23957865 19.80392487 -0.26666958 21.62768555 -0.30175781 C43.75337576 -0.7161194 63.9878823 3.26030924 81.0625 18.375 C91.73253566 29.49407524 95.510126 44.43665317 95.25 59.41015625 C94.22401416 74.14267162 88.85323312 85.97255636 78 96 C71.23294326 101.23545958 64.14028528 104.51910678 56 107 C55.13914795 107.27078369 54.2782959 107.54156738 53.39135742 107.82055664 C42.56926441 110.77304846 31.82126645 110.33049477 20.6875 110.1875 C10.4471875 110.0946875 10.4471875 110.0946875 0 110 C0 129.47 0 148.94 0 169 C-11.22 169 -22.44 169 -34 169 C-34 140.29 -34 111.58 -34 82 C0.1875 81.75 0.1875 81.75 10.90307617 81.70214844 C14.12818047 81.66884774 14.12818047 81.66884774 17.35322571 81.63043213 C18.76759983 81.61600774 20.18206429 81.60905389 21.59651184 81.60845947 C38.01791537 81.73304952 38.01791537 81.73304952 52.125 74.5 C52.74375 73.675 53.3625 72.85 54 72 C54.5775 71.319375 55.155 70.63875 55.75 69.9375 C58.47245591 65.71769334 58.21391976 61.0718629 58.25 56.1875 C58.270625 55.50107422 58.29125 54.81464844 58.3125 54.10742188 C58.37230378 46.20584795 55.40450518 40.66186257 50 35 C43.6115663 30.29273307 36.66673876 29.69726664 29.00390625 29.5859375 C28.17036118 29.56657135 27.3368161 29.5472052 26.47801208 29.5272522 C23.83960916 29.46791007 21.20116152 29.42125427 18.5625 29.375 C16.76365381 29.33677836 14.96482511 29.29772425 13.16601562 29.2578125 C8.77743947 29.16069325 4.38902883 29.08076663 0 29 C0 19.43 0 9.86 0 0 Z " fill="#FCFCFD" transform="translate(67,8)"/>
<path d="M0 0 C6.6 0 13.2 0 20 0 C20 0.33 20 0.66 20 1 C14.06 1 8.12 1 2 1 C2.10828125 4.42439453 2.10828125 4.42439453 2.21875 7.91796875 C2.31395482 11.00776896 2.40693107 14.0976348 2.5 17.1875 C2.52434113 17.98300262 2.54868225 18.77850525 2.57376099 19.59811401 C2.8919381 30.11312922 3.13093246 40.61136819 2.875 51.1315918 C2.84522356 53.08794498 2.91203222 55.04539874 3 57 C3.66 57.66 4.32 58.32 5 59 C4.01 59.66 3.02 60.32 2 61 C2 61.66 2 62.32 2 63 C3.65 62.01 5.3 61.02 7 60 C7.66 60.99 8.32 61.98 9 63 C10.73161963 64.36640898 10.73161963 64.36640898 13 65 C14.5159375 64.7215625 14.5159375 64.7215625 16.0625 64.4375 C19 64 19 64 20.75 65 C22 67 22 67 24 74 C-6.03 74 -36.06 74 -67 74 C-67 70.04 -67 66.08 -67 62 C-65.02 61.34 -63.04 60.68 -61 60 C-61 60.66 -61 61.32 -61 62 C-60.071875 61.525625 -59.14375 61.05125 -58.1875 60.5625 C-55 59 -55 59 -52 58 C-52.66 56.35 -53.32 54.7 -54 53 C-53.01 52.505 -53.01 52.505 -52 52 C-51.67 53.65 -51.34 55.3 -51 57 C-46.71 57 -42.42 57 -38 57 C-38 59.97 -38 62.94 -38 66 C-35.03 66 -32.06 66 -29 66 C-29 64.35 -29 62.7 -29 61 C-29.99 60.505 -29.99 60.505 -31 60 C-20.77 60 -10.54 60 0 60 C0 40.2 0 20.4 0 0 Z " fill="#06115B" transform="translate(67,118)"/>
<path d="M0 0 C4.00521387 2.88747977 7.46370991 6.48991981 9.6875 10.9375 C10.2816389 16.65037408 9.91807886 21.03593208 6.6875 25.9375 C3.14964512 29.9408621 -0.17008697 33.50515458 -5.640625 34.2578125 C-11.39966258 34.51645191 -14.85666654 33.87521329 -19.3125 29.9375 C-24.57606617 24.33065777 -25.78161233 20.70134548 -25.7265625 13.05859375 C-24.93476274 7.09021629 -21.39795462 3.84420137 -17.125 -0.0625 C-11.50739162 -2.05987187 -5.63599685 -1.80777257 0 0 Z " fill="#F9FAFC" transform="translate(58.3125,45.0625)"/>
<path d="M0 0 C23.43 0 46.86 0 71 0 C71 0.33 71 0.66 71 1 C47.9 1 24.8 1 1 1 C1 29.71 1 58.42 1 88 C12.22 88 23.44 88 35 88 C35 88.33 35 88.66 35 89 C25.43 89.33 15.86 89.66 6 90 C6 91.65 6 93.3 6 95 C3.04335481 96.4783226 0.25770263 96.06032783 -3 96 C-3.95929637 92.26940301 -3.84676067 89.73201925 -3 86 C-4.13888672 86.16048828 -4.13888672 86.16048828 -5.30078125 86.32421875 C-6.29464844 86.44410156 -7.28851563 86.56398438 -8.3125 86.6875 C-9.29863281 86.81511719 -10.28476562 86.94273437 -11.30078125 87.07421875 C-14 87 -14 87 -15.875 85.6875 C-17 84 -17 84 -16.6875 81.3125 C-16.460625 80.549375 -16.23375 79.78625 -16 79 C-14.68 79.33 -13.36 79.66 -12 80 C-12.99 80 -13.98 80 -15 80 C-15 81.65 -15 83.3 -15 85 C-14.71125 84.360625 -14.4225 83.72125 -14.125 83.0625 C-13 81 -13 81 -11 80 C-8.87109375 80.0859375 -8.87109375 80.0859375 -6.4375 80.375 C-5.63183594 80.46523437 -4.82617188 80.55546875 -3.99609375 80.6484375 C-2 81 -2 81 -1 82 C-0.67 54.94 -0.34 27.88 0 0 Z " fill="#4F5E90" transform="translate(32,89)"/>
<path d="M0 0 C3.3 0 6.6 0 10 0 C10.33 0.99 10.66 1.98 11 3 C12.4540625 3.433125 12.4540625 3.433125 13.9375 3.875 C17 5 17 5 18.4375 7.0625 C19.22440654 11.17190083 18.66136244 14.89776539 18 19 C13.33271163 20.55576279 8.87095018 20.54049672 4.1875 19.1875 C1.85765426 17.9227266 0.60755103 17.10767802 -1 15 C-1.51171875 11.86328125 -1.51171875 11.86328125 -1.6875 8.3125 C-1.75324219 7.13300781 -1.81898438 5.95351562 -1.88671875 4.73828125 C-1.92410156 3.83464844 -1.96148437 2.93101562 -2 2 C-1.34 2 -0.68 2 0 2 C0 1.34 0 0.68 0 0 Z " fill="#001A68" transform="translate(157,168)"/>
<path d="M0 0 C3.43108658 1.19502836 6.2538413 2.63935766 8.0625 5.9375 C7.98158878 8.60757037 7.04001249 10.55291178 6 13 C6 14.32 6 15.64 6 17 C-0.40588531 18.06764755 -6.64846542 18.77448638 -13 17 C-13.08076963 14.54101345 -13.14037143 12.08466258 -13.1875 9.625 C-13.21263672 8.92632812 -13.23777344 8.22765625 -13.26367188 7.5078125 C-13.29296875 5.4765625 -13.29296875 5.4765625 -13 2 C-8.73004833 -0.84663445 -5.0119114 -0.62174998 0 0 Z " fill="#00227E" transform="translate(13,74)"/>
<path d="M0 0 C0.33 0 0.66 0 1 0 C1.03867187 0.97839844 1.03867187 0.97839844 1.078125 1.9765625 C1.45516815 7.78645463 2.24550913 11.33532952 6 16 C6.66 16.99 7.32 17.98 8 19 C1.43566946 24.88232218 1.43566946 24.88232218 -3.8125 25.3125 C-7 24 -7 24 -8.875 20.5 C-9.24625 19.345 -9.6175 18.19 -10 17 C-10.33 16.67 -10.66 16.34 -11 16 C-11.125 13 -11.125 13 -11 10 C-10 9 -10 9 -7.71484375 8.90234375 C-6.34005859 8.91974609 -6.34005859 8.91974609 -4.9375 8.9375 C-4.01839844 8.94652344 -3.09929688 8.95554687 -2.15234375 8.96484375 C-1.44207031 8.97644531 -0.73179688 8.98804687 0 9 C0 6.03 0 3.06 0 0 Z " fill="#032283" transform="translate(32,57)"/>
<path d="M0 0 C0.99 0.33 1.98 0.66 3 1 C3 1.99 3 2.98 3 4 C2.34 4 1.68 4 1 4 C1 5.65 1 7.3 1 9 C0.01 9.33 -0.98 9.66 -2 10 C-2 11.32 -2 12.64 -2 14 C-2.886875 13.979375 -3.77375 13.95875 -4.6875 13.9375 C-7.92195844 13.88359866 -7.92195844 13.88359866 -10.6875 14.625 C-13 15 -13 15 -16 13 C-16 12.34 -16 11.68 -16 11 C-16.99 10.67 -17.98 10.34 -19 10 C-20.6875 7.9375 -20.6875 7.9375 -22 6 C-21.40461426 5.85377197 -20.80922852 5.70754395 -20.19580078 5.55688477 C-17.50492304 4.89454315 -14.81495783 4.22856732 -12.125 3.5625 C-11.18785156 3.33240234 -10.25070313 3.10230469 -9.28515625 2.86523438 C-8.38925781 2.64287109 -7.49335937 2.42050781 -6.5703125 2.19140625 C-5.32918701 1.88505249 -5.32918701 1.88505249 -4.06298828 1.57250977 C-1.96004845 1.05992006 -1.96004845 1.05992006 0 0 Z " fill="#012579" transform="translate(132,111)"/>
<path d="M0 0 C4.17562754 0.39392713 6.12051166 1.62832799 9.3125 4.3125 C11.43896063 7.98547744 11.50745279 11.12101493 11.3125 15.3125 C9.6625 15.6425 8.0125 15.9725 6.3125 16.3125 C6.10625 15.508125 5.9 14.70375 5.6875 13.875 C5.23375 13.029375 4.78 12.18375 4.3125 11.3125 C1.25977535 10.41419161 1.25977535 10.41419161 -1.6875 10.3125 C-2.04866046 8.8350254 -2.40125048 7.35545325 -2.75 5.875 C-2.94722656 5.05128906 -3.14445313 4.22757813 -3.34765625 3.37890625 C-3.51587891 2.35603516 -3.51587891 2.35603516 -3.6875 1.3125 C-2.6875 0.3125 -2.6875 0.3125 0 0 Z " fill="#365689" transform="translate(162.6875,168.6875)"/>
<path d="M0 0 C4.22367735 0.27249531 8.7291099 1.1041099 11.875 4.25 C11.875 6.23 11.875 8.21 11.875 10.25 C6.595 10.25 1.315 10.25 -4.125 10.25 C-4.22265625 3.31640625 -4.22265625 3.31640625 -4.125 1.25 C-3.125 0.25 -3.125 0.25 0 0 Z " fill="#072869" transform="translate(4.125,181.75)"/>
<path d="M0 0 C5.62965735 -0.88889327 9.14601529 1.45379987 13.828125 4.19921875 C16.33049837 6.27402832 17.05793112 7.9278087 18 11 C17.01 11 16.02 11 15 11 C14.67 10.01 14.34 9.02 14 8 C10.06924356 8.57452746 10.06924356 8.57452746 7 11 C6.360625 10.835 5.72125 10.67 5.0625 10.5 C4.381875 10.335 3.70125 10.17 3 10 C2.01 10.66 1.02 11.32 0 12 C-1 11 -1 11 -1.125 7.6875 C-1.02893262 4.85351237 -0.85249568 2.66404901 0 0 Z " fill="#001382" transform="translate(163,55)"/>
<path d="M0 0 C5.30002667 0.08576095 7.88070314 2.00763465 11.8125 5.4375 C11.8125 5.7675 11.8125 6.0975 11.8125 6.4375 C11.13703125 6.48648438 10.4615625 6.53546875 9.765625 6.5859375 C8.87359375 6.66070312 7.9815625 6.73546875 7.0625 6.8125 C6.18078125 6.88210937 5.2990625 6.95171875 4.390625 7.0234375 C1.80403371 7.43885974 0.10891417 8.2309095 -2.1875 9.4375 C-4.9375 9.5625 -4.9375 9.5625 -7.1875 9.4375 C-6.15891213 0.18020913 -6.15891213 0.18020913 0 0 Z " fill="#01216E" transform="translate(87.1875,136.5625)"/>
<path d="M0 0 C0.66 2.31 1.32 4.62 2 7 C3.65 7.33 5.3 7.66 7 8 C7 9.65 7 11.3 7 13 C1.52887538 13.36474164 1.52887538 13.36474164 -0.8125 11.75 C-2 10 -2 10 -2.3125 7.9375 C-2.6528125 6.9784375 -2.6528125 6.9784375 -3 6 C-3.99 5.67 -4.98 5.34 -6 5 C-6.99 4.67 -7.98 4.34 -9 4 C-9.875 1.875 -9.875 1.875 -10 0 C-6.7169902 -1.6415049 -3.57454967 -0.51888624 0 0 Z " fill="#0B367C" transform="translate(139,163)"/>
<path d="M0 0 C1.77021035 1.01154877 3.48495767 2.11862016 5.19140625 3.234375 C5.19140625 3.894375 5.19140625 4.554375 5.19140625 5.234375 C6.18140625 5.564375 7.17140625 5.894375 8.19140625 6.234375 C8.52140625 8.214375 8.85140625 10.194375 9.19140625 12.234375 C7.87140625 11.904375 6.55140625 11.574375 5.19140625 11.234375 C4.53140625 8.924375 3.87140625 6.614375 3.19140625 4.234375 C0.55140625 4.234375 -2.08859375 4.234375 -4.80859375 4.234375 C-5.13859375 5.554375 -5.46859375 6.874375 -5.80859375 8.234375 C-2.83859375 8.729375 -2.83859375 8.729375 0.19140625 9.234375 C0.52140625 10.554375 0.85140625 11.874375 1.19140625 13.234375 C0.49273437 12.945625 -0.2059375 12.656875 -0.92578125 12.359375 C-1.83585938 11.988125 -2.7459375 11.616875 -3.68359375 11.234375 C-4.58851563 10.863125 -5.4934375 10.491875 -6.42578125 10.109375 C-8.69843233 9.11947274 -8.69843233 9.11947274 -10.80859375 9.234375 C-10.55859375 6.359375 -10.55859375 6.359375 -9.80859375 3.234375 C-7.99609375 1.984375 -7.99609375 1.984375 -5.80859375 1.234375 C-5.21046875 0.780625 -4.61234375 0.326875 -3.99609375 -0.140625 C-1.80859375 -0.765625 -1.80859375 -0.765625 0 0 Z " fill="#002372" transform="translate(135.80859375,158.765625)"/>
<path d="M0 0 C0.66 0 1.32 0 2 0 C2.19397476 1.97854258 2.38001321 3.9578648 2.5625 5.9375 C2.66691406 7.03964844 2.77132812 8.14179688 2.87890625 9.27734375 C2.91886719 10.17582031 2.95882812 11.07429687 3 12 C2 13 2 13 -0.875 13.1875 C-4 13 -4 13 -7 11 C-6.67 10.01 -6.34 9.02 -6 8 C-5.34 8 -4.68 8 -4 8 C-4 6.68 -4 5.36 -4 4 C-5.216875 4.33 -6.43375 4.66 -7.6875 5 C-10.87210604 5.80322213 -13.6972843 6.20641973 -17 6 C-16.38125 5.71125 -15.7625 5.4225 -15.125 5.125 C-12.86674235 4.06279958 -12.86674235 4.06279958 -11 2 C-8.3984375 1.5859375 -8.3984375 1.5859375 -5.375 1.375 C-4.37210938 1.30023438 -3.36921875 1.22546875 -2.3359375 1.1484375 C-1.17964844 1.07496094 -1.17964844 1.07496094 0 1 C0 0.67 0 0.34 0 0 Z " fill="#001067" transform="translate(98,141)"/>
<path d="M0 0 C3.57986001 0.49135333 6.06603574 1.65380614 9.1875 3.4375 C9.1875 4.0975 9.1875 4.7575 9.1875 5.4375 C9.8475 5.4375 10.5075 5.4375 11.1875 5.4375 C10.8575 6.4275 10.5275 7.4175 10.1875 8.4375 C9.300625 8.086875 8.41375 7.73625 7.5 7.375 C4.11680043 6.41749069 2.47338618 6.31091045 -0.8125 7.4375 C-1.1425 8.0975 -1.4725 8.7575 -1.8125 9.4375 C-3.4625 9.4375 -5.1125 9.4375 -6.8125 9.4375 C-6.13560003 4.56382024 -5.31359435 0.82655912 0 0 Z " fill="#032F81" transform="translate(137.8125,129.5625)"/>
<path d="M0 0 C0.99 0.33 1.98 0.66 3 1 C3.18175781 2.06541016 3.18175781 2.06541016 3.3671875 3.15234375 C3.53476563 4.07144531 3.70234375 4.99054688 3.875 5.9375 C4.11863281 7.31228516 4.11863281 7.31228516 4.3671875 8.71484375 C4.57601562 9.46894531 4.78484375 10.22304687 5 11 C5.66 11.33 6.32 11.66 7 12 C5.42065361 12.98558449 3.83634827 13.96322541 2.25 14.9375 C1.36828125 15.48277344 0.4865625 16.02804688 -0.421875 16.58984375 C-4.43007945 18.78221012 -4.43007945 18.78221012 -7 19 C-9.75 16.5625 -9.75 16.5625 -12 14 C-7.71 14 -3.42 14 1 14 C1.020625 12.4325 1.04125 10.865 1.0625 9.25 C1.07410156 8.36828125 1.08570313 7.4865625 1.09765625 6.578125 C1.00826198 4.2181162 0.66912821 2.25501476 0 0 Z " fill="#02135B" transform="translate(174,173)"/>
<path d="M0 0 C3.3 0.33 6.6 0.66 10 1 C10.33 4.3 10.66 7.6 11 11 C10.29875 10.67 9.5975 10.34 8.875 10 C5.70893872 8.89876129 3.32935296 8.77804314 0 9 C-0.99 9.495 -0.99 9.495 -2 10 C-2 10.99 -2 11.98 -2 13 C-2.66 13 -3.32 13 -4 13 C-4 11.35 -4 9.7 -4 8 C-0.52674819 6.8422494 2.36067448 6.93133348 6 7 C6 6.34 6 5.68 6 5 C4.35 5 2.7 5 1 5 C0.67 3.35 0.34 1.7 0 0 Z " fill="#041F69" transform="translate(21,161)"/>
<path d="M0 0 C2.475 0.99 2.475 0.99 5 2 C4.979375 3.11375 4.95875 4.2275 4.9375 5.375 C4.73619282 8.83215921 4.73619282 8.83215921 6 11 C5.72057545 12.67654729 5.39171753 14.34608154 5 16 C3.35 16 1.7 16 0 16 C0 10.72 0 5.44 0 0 Z " fill="#143E80" transform="translate(0,122)"/>
<path d="M0 0 C1.32 0.66 2.64 1.32 4 2 C3.814375 2.804375 3.62875 3.60875 3.4375 4.4375 C3.2209375 5.7059375 3.2209375 5.7059375 3 7 C3.33 7.33 3.66 7.66 4 8 C4.04063832 9.66617115 4.042721 11.33388095 4 13 C2.02 13.66 0.04 14.32 -2 15 C-2 11.04 -2 7.08 -2 3 C-1.01 3 -0.02 3 1 3 C0.67 2.01 0.34 1.02 0 0 Z " fill="#001460" transform="translate(2,147)"/>
<path d="M0 0 C0.33 0 0.66 0 1 0 C1.06058594 0.67546875 1.12117188 1.3509375 1.18359375 2.046875 C1.26738281 2.93890625 1.35117187 3.8309375 1.4375 4.75 C1.55931641 6.07257812 1.55931641 6.07257812 1.68359375 7.421875 C1.93714901 9.9690211 1.93714901 9.9690211 2.59765625 12.265625 C2.73042969 12.83796875 2.86320312 13.4103125 3 14 C2 15 2 15 -0.28515625 15.09765625 C-1.65994141 15.08025391 -1.65994141 15.08025391 -3.0625 15.0625 C-3.98160156 15.05347656 -4.90070312 15.04445313 -5.84765625 15.03515625 C-6.55792969 15.02355469 -7.26820312 15.01195313 -8 15 C-8.33 14.01 -8.66 13.02 -9 12 C-8.67 11.34 -8.34 10.68 -8 10 C-5.35139573 9.40644386 -2.70802678 9.25790731 0 9 C0 6.03 0 3.06 0 0 Z " fill="#204392" transform="translate(32,57)"/>
<path d="M0 0 C0.66 0 1.32 0 2 0 C4.1519437 3.22791555 4.20086443 4.28400809 4 8 C5.98 8 7.96 8 10 8 C10.66 9.65 11.32 11.3 12 13 C13.65 13 15.3 13 17 13 C16.34 9.37 15.68 5.74 15 2 C15.66 2 16.32 2 17 2 C19.22923777 6.32734391 18.92470553 9.28400182 18 14 C15.69 14.33 13.38 14.66 11 15 C10.835 14.21625 10.67 13.4325 10.5 12.625 C9.29603101 9.8906529 9.29603101 9.8906529 7.0859375 9.22265625 C5.07483301 8.73586948 3.037362 8.36146745 1 8 C0.67 5.36 0.34 2.72 0 0 Z " fill="#173F7D" transform="translate(157,171)"/>
<path d="M0 0 C1.98 0 3.96 0 6 0 C7.35439668 2.70879335 7.06501451 5.00933268 7 8 C5.35 8.33 3.7 8.66 2 9 C1.79375 8.195625 1.5875 7.39125 1.375 6.5625 C0.92125 5.716875 0.4675 4.87125 0 4 C-3.05272465 3.10169161 -3.05272465 3.10169161 -6 3 C-6 2.67 -6 2.34 -6 2 C-4.02 2 -2.04 2 0 2 C0 1.34 0 0.68 0 0 Z " fill="#2A4C82" transform="translate(167,176)"/>
<path d="M0 0 C0.7940625 0.07863281 1.588125 0.15726563 2.40625 0.23828125 C4.5 0.6875 4.5 0.6875 6.5 2.6875 C6.5 3.6775 6.5 4.6675 6.5 5.6875 C2.21 5.3575 -2.08 5.0275 -6.5 4.6875 C-6.5 3.3675 -6.5 2.0475 -6.5 0.6875 C-4.02756353 -0.54871824 -2.72682061 -0.29658601 0 0 Z " fill="#466493" transform="translate(25.5,169.3125)"/>
<path d="M0 0 C3.3 0 6.6 0 10 0 C10.33 0.66 10.66 1.32 11 2 C9.01432292 1.96744792 7.02864583 1.93489583 5.04296875 1.90234375 C2.79694539 1.91736783 2.79694539 1.91736783 0 3 C0.33 5.64 0.66 8.28 1 11 C3.64 11.33 6.28 11.66 9 12 C9.33 13.32 9.66 14.64 10 16 C9.67 15.34 9.34 14.68 9 14 C6.36 14 3.72 14 1 14 C1 13.34 1 12.68 1 12 C0.34 12 -0.32 12 -1 12 C-1.33 8.7 -1.66 5.4 -2 2 C-1.34 2 -0.68 2 0 2 C0 1.34 0 0.68 0 0 Z " fill="#032B73" transform="translate(157,168)"/>
<path d="M0 0 C1.8871875 0.061875 1.8871875 0.061875 3.8125 0.125 C4.1425 1.115 4.4725 2.105 4.8125 3.125 C5.4725 3.455 6.1325 3.785 6.8125 4.125 C3.1825 4.125 -0.4475 4.125 -4.1875 4.125 C-4.5175 5.775 -4.8475 7.425 -5.1875 9.125 C-5.8475 9.125 -6.5075 9.125 -7.1875 9.125 C-7.375 5.75 -7.375 5.75 -7.1875 2.125 C-4.09861478 0.06574319 -3.47814073 -0.1140374 0 0 Z " fill="#0A3D8B" transform="translate(7.1875,73.875)"/>
<path d="M0 0 C2.31 0.33 4.62 0.66 7 1 C6.979375 1.7425 6.95875 2.485 6.9375 3.25 C6.99328688 5.70462279 7.3069904 7.66109261 8 10 C8.66 10 9.32 10 10 10 C10 10.66 10 11.32 10 12 C8.02 12 6.04 12 4 12 C2.68776504 8.06329512 3.75703744 5.87511856 5 2 C4.05125 2.515625 3.1025 3.03125 2.125 3.5625 C1.09375 4.036875 0.0625 4.51125 -1 5 C-1.66 4.67 -2.32 4.34 -3 4 C-2.01 2.68 -1.02 1.36 0 0 Z " fill="#00156C" transform="translate(138,135)"/>
<path d="M0 0 C6.75 -0.125 6.75 -0.125 9 1 C9 2.65 9 4.3 9 6 C6.03 6 3.06 6 0 6 C0 4.02 0 2.04 0 0 Z " fill="#002C8F" transform="translate(163,57)"/>
<path d="M0 0 C-0.3125 1.875 -0.3125 1.875 -1 4 C-4.46923881 6.31282587 -5.92205575 6.42478586 -10 6 C-11.875 4.5 -11.875 4.5 -13 3 C-4.03773585 -2.01886792 -4.03773585 -2.01886792 0 0 Z " fill="#27518F" transform="translate(128,114)"/>
<path d="M0 0 C1.32 0.33 2.64 0.66 4 1 C4.38218767 2.65614657 4.71395102 4.32457024 5 6 C4 7 4 7 1.125 7.1875 C-2 7 -2 7 -5 5 C-4.67 4.01 -4.34 3.02 -4 2 C-2.68 2 -1.36 2 0 2 C0 1.34 0 0.68 0 0 Z " fill="#011E6A" transform="translate(96,147)"/>
<path d="M0 0 C0.80566406 0.00257813 1.61132812 0.00515625 2.44140625 0.0078125 C3.64603516 0.00394531 3.64603516 0.00394531 4.875 0 C7.00390625 0.1328125 7.00390625 0.1328125 9.00390625 1.1328125 C9.00390625 2.4528125 9.00390625 3.7728125 9.00390625 5.1328125 C5.37390625 4.8028125 1.74390625 4.4728125 -1.99609375 4.1328125 C-2.32609375 3.1428125 -2.65609375 2.1528125 -2.99609375 1.1328125 C-1.99609375 0.1328125 -1.99609375 0.1328125 0 0 Z " fill="#052C72" transform="translate(180.99609375,145.8671875)"/>
<path d="M0 0 C0.99 0.33 1.98 0.66 3 1 C3 1.66 3 2.32 3 3 C3.99 3.33 4.98 3.66 6 4 C5.505 4.763125 5.01 5.52625 4.5 6.3125 C2.75631692 8.92363751 2.75631692 8.92363751 3 12 C2.34 12 1.68 12 1 12 C1 12.66 1 13.32 1 14 C-0.98 14 -2.96 14 -5 14 C-5 13.67 -5 13.34 -5 13 C-3.35 13 -1.7 13 0 13 C0.20970559 8.85906302 0.20970559 8.85906302 -1 5 C-0.72057545 3.32345271 -0.39171753 1.65391846 0 0 Z " fill="#011C67" transform="translate(5,125)"/>
<path d="M0 0 C2.64 0 5.28 0 8 0 C8.33 1.65 8.66 3.3 9 5 C6.03 4.67 3.06 4.34 0 4 C0 2.68 0 1.36 0 0 Z " fill="#2B4B80" transform="translate(2,183)"/>
<path d="M0 0 C0.66 0.66 1.32 1.32 2 2 C1.875 4 1.875 4 1 6 C-2.4461973 8.61910994 -6.8298425 8.58298425 -11 9 C-11 8.34 -11 7.68 -11 7 C-11.66 7 -12.32 7 -13 7 C-13 6.34 -13 5.68 -13 5 C-14.65 5 -16.3 5 -18 5 C-18 4.67 -18 4.34 -18 4 C-15.69 4 -13.38 4 -11 4 C-10.67 4.66 -10.34 5.32 -10 6 C-6.65747276 6.07427838 -4.1964086 6.06546953 -1 5 C-0.67 3.35 -0.34 1.7 0 0 Z " fill="#0E3F87" transform="translate(128,113)"/>
<path d="M0 0 C2.64 0.33 5.28 0.66 8 1 C8 2.65 8 4.3 8 6 C6.02 6 4.04 6 2 6 C1.34 4.02 0.68 2.04 0 0 Z " fill="#133B7C" transform="translate(138,170)"/>
<path d="M0 0 C0.99 0.33 1.98 0.66 3 1 C3 1.66 3 2.32 3 3 C3.66 3 4.32 3 5 3 C4.67 3.99 4.34 4.98 4 6 C3.113125 5.649375 2.22625 5.29875 1.3125 4.9375 C-2.07069957 3.97999069 -3.71411382 3.87341045 -7 5 C-7.33 5.66 -7.66 6.32 -8 7 C-9.65 7 -11.3 7 -13 7 C-12.38125 6.9175 -11.7625 6.835 -11.125 6.75 C-8.81562433 6.18741541 -8.81562433 6.18741541 -7.75 3.9375 C-7.5025 3.298125 -7.255 2.65875 -7 2 C-4.69 2 -2.38 2 0 2 C0 1.34 0 0.68 0 0 Z " fill="#002477" transform="translate(144,132)"/>
<path d="M0 0 C0.33 1.32 0.66 2.64 1 4 C3.97 4 6.94 4 10 4 C9.01 5.485 9.01 5.485 8 7 C7.401875 6.79375 6.80375 6.5875 6.1875 6.375 C3.71549154 5.69328085 3.71549154 5.69328085 1 8 C0 7 0 7 -0.0625 3.4375 C-0.041875 2.303125 -0.02125 1.16875 0 0 Z M10 0 C11.98 0.99 11.98 0.99 14 2 C12.02 2.99 12.02 2.99 10 4 C10 2.68 10 1.36 10 0 Z " fill="#02217C" transform="translate(162,59)"/>
<path d="M0 0 C0.33 0.66 0.66 1.32 1 2 C2.0725 1.979375 3.145 1.95875 4.25 1.9375 C7.14790424 1.9857984 9.28612141 2.13155885 12 3 C12.33 2.01 12.66 1.02 13 0 C13.33 1.32 13.66 2.64 14 4 C12.04235617 4.19456705 10.08384679 4.38044247 8.125 4.5625 C7.03445312 4.66691406 5.94390625 4.77132812 4.8203125 4.87890625 C2 5 2 5 0 4 C0 2.68 0 1.36 0 0 Z " fill="#001B69" transform="translate(178,148)"/>
<path d="M0 0 C0.66 0 1.32 0 2 0 C5.07692308 6.4 5.07692308 6.4 4.6875 9.4375 C4.460625 9.953125 4.23375 10.46875 4 11 C4 10.01 4 9.02 4 8 C2.35 8 0.7 8 -1 8 C-1 5.16032769 -0.59732819 2.76264289 0 0 Z " fill="#163293" transform="translate(121,49)"/>
<path d="M0 0 C2.31 0.33 4.62 0.66 7 1 C7.33 2.32 7.66 3.64 8 5 C4.37673261 6.2077558 3.35853631 5.54311128 0 4 C0 2.68 0 1.36 0 0 Z " fill="#0B3477" transform="translate(74,178)"/>
<path d="M0 0 C1.98 0.66 3.96 1.32 6 2 C5.34 3.65 4.68 5.3 4 7 C2.35 7 0.7 7 -1 7 C-0.67 4.69 -0.34 2.38 0 0 Z " fill="#072D6B" transform="translate(31,177)"/>
<path d="M0 0 C5.625 -0.25 5.625 -0.25 9 2 C9 2.99 9 3.98 9 5 C4.545 4.01 4.545 4.01 0 3 C0 2.01 0 1.02 0 0 Z " fill="#4A6897" transform="translate(162,170)"/>
<path d="M0 0 C3.3 0 6.6 0 10 0 C9.34 1.65 8.68 3.3 8 5 C5.36 4.01 2.72 3.02 0 2 C0 1.34 0 0.68 0 0 Z " fill="#002177" transform="translate(123,133)"/>
<path d="M0 0 C0.33 0.66 0.66 1.32 1 2 C-3.93654267 9.5273523 -3.93654267 9.5273523 -8.375 11.5 C-9.24125 11.665 -10.1075 11.83 -11 12 C-10.29875 11.319375 -9.5975 10.63875 -8.875 9.9375 C-5.72065663 6.79219487 -2.86065696 3.4111614 0 0 Z " fill="#1A246F" transform="translate(152,95)"/>
<path d="M0 0 C1.65 0 3.3 0 5 0 C5.66 1.32 6.32 2.64 7 4 C4.69 4.33 2.38 4.66 0 5 C-0.33 4.01 -0.66 3.02 -1 2 C-0.67 1.34 -0.34 0.68 0 0 Z " fill="#0C4194" transform="translate(24,67)"/>
<path d="M0 0 C0.99 0 1.98 0 3 0 C3.1875 2.375 3.1875 2.375 3 5 C0 7 0 7 -2.1875 6.625 C-2.785625 6.41875 -3.38375 6.2125 -4 6 C-4 5.34 -4 4.68 -4 4 C-2.68 4 -1.36 4 0 4 C0 2.68 0 1.36 0 0 Z " fill="#01266F" transform="translate(146,172)"/>
<path d="M0 0 C2.64 0 5.28 0 8 0 C8.33 0.99 8.66 1.98 9 3 C4.545 3.495 4.545 3.495 0 4 C0 2.68 0 1.36 0 0 Z " fill="#00209B" transform="translate(152,0)"/>
<path d="M0 0 C1 4 1 4 1 4 Z M-1 6 C-2.375 7.5 -2.375 7.5 -4 9 C-4.66 9 -5.32 9 -6 9 C-6.33 9.66 -6.66 10.32 -7 11 C-7.99 10.01 -8.98 9.02 -10 8 C-9.34 8 -8.68 8 -8 8 C-8 7.34 -8 6.68 -8 6 C-3.25 4.875 -3.25 4.875 -1 6 Z " fill="#001464" transform="translate(149,173)"/>
<path d="M0 0 C2.31 0.33 4.62 0.66 7 1 C7.33 1.99 7.66 2.98 8 4 C5.03 3.67 2.06 3.34 -1 3 C-0.67 2.01 -0.34 1.02 0 0 Z " fill="#315A95" transform="translate(86,138)"/>
<path d="M0 0 C4.75 1.875 4.75 1.875 7 3 C7 3.99 7 4.98 7 6 C4.03 5.67 1.06 5.34 -2 5 C-1.01 4.34 -0.02 3.68 1 3 C0.67 2.01 0.34 1.02 0 0 Z " fill="#022E87" transform="translate(11,74)"/>
<path d="M0 0 C1.134375 0.020625 2.26875 0.04125 3.4375 0.0625 C3.4375 0.3925 3.4375 0.7225 3.4375 1.0625 C1.7875 1.0625 0.1375 1.0625 -1.5625 1.0625 C-1.2325 3.0425 -0.9025 5.0225 -0.5625 7.0625 C-1.8825 7.0625 -3.2025 7.0625 -4.5625 7.0625 C-4.60504356 5.06295254 -4.60330783 3.06208364 -4.5625 1.0625 C-3.5625 0.0625 -3.5625 0.0625 0 0 Z " fill="#002E8B" transform="translate(25.5625,65.9375)"/>
<path d="M0 0 C1.98 0.495 1.98 0.495 4 1 C4 2.32 4 3.64 4 5 C2.35 5.33 0.7 5.66 -1 6 C-0.67 4.02 -0.34 2.04 0 0 Z " fill="#375485" transform="translate(170,179)"/>
<path d="M0 0 C0.99 0 1.98 0 3 0 C3 0.66 3 1.32 3 2 C5.97 2.33 8.94 2.66 12 3 C11.67 3.66 11.34 4.32 11 5 C4.61764706 5.49095023 4.61764706 5.49095023 1.5625 3.0625 C0 1 0 1 0 0 Z " fill="#002E81" transform="translate(112,118)"/>
<path d="M0 0 C1.98 0.99 1.98 0.99 4 2 C3.67 3.65 3.34 5.3 3 7 C2.01 7 1.02 7 0 7 C0 4.69 0 2.38 0 0 Z " fill="#30548D" transform="translate(0,122)"/>
<path d="M0 0 C0.99 0.33 1.98 0.66 3 1 C3 1.99 3 2.98 3 4 C2.34 4 1.68 4 1 4 C1 5.65 1 7.3 1 9 C0.34 9 -0.32 9 -1 9 C-1.09765625 2.84765625 -1.09765625 2.84765625 -1 1 C-0.67 0.67 -0.34 0.34 0 0 Z " fill="#041F71" transform="translate(132,111)"/>
<path d="M0 0 C0 1.32 0 2.64 0 4 C-2.31 3.67 -4.62 3.34 -7 3 C-7 2.34 -7 1.68 -7 1 C-4.53721199 -0.231394 -2.7204945 -0.07159196 0 0 Z " fill="#063C94" transform="translate(172,59)"/>
<path d="M0 0 C1.98 0.99 1.98 0.99 4 2 C4 3.98 4 5.96 4 8 C2.68 7.67 1.36 7.34 0 7 C0.2784375 6.1028125 0.2784375 6.1028125 0.5625 5.1875 C1.22093687 2.83591238 1.22093687 2.83591238 0 0 Z " fill="#001F65" transform="translate(12,184)"/>
<path d="M0 0 C2.31 0.33 4.62 0.66 7 1 C7.33 1.99 7.66 2.98 8 4 C2.25 3.125 2.25 3.125 0 2 C0 1.34 0 0.68 0 0 Z " fill="#011E6E" transform="translate(95,169)"/>
<path d="M0 0 C0.99 0.66 1.98 1.32 3 2 C3 2.99 3 3.98 3 5 C-1.29 4.67 -5.58 4.34 -10 4 C-10 3.67 -10 3.34 -10 3 C-6.7 2.67 -3.4 2.34 0 2 C0 1.34 0 0.68 0 0 Z " fill="#26467C" transform="translate(29,170)"/>
<path d="M0 0 C0.33 0.99 0.66 1.98 1 3 C0.34 3 -0.32 3 -1 3 C-1 5.97 -1 8.94 -1 12 C-2.46132217 9.07735566 -3.34099246 7.07536854 -4 4 C-2.68 3.34 -1.36 2.68 0 2 C0 1.34 0 0.68 0 0 Z " fill="#001763" transform="translate(156,167)"/>
<path d="M0 0 C5.75 -0.125 5.75 -0.125 8 1 C8 1.66 8 2.32 8 3 C2.25 3.125 2.25 3.125 0 2 C0 1.34 0 0.68 0 0 Z " fill="#335A92" transform="translate(181,147)"/>
<path d="M0 0 C2.64 0.33 5.28 0.66 8 1 C7.01 2.485 7.01 2.485 6 4 C4.35 3.67 2.7 3.34 1 3 C0.67 2.01 0.34 1.02 0 0 Z " fill="#01218E" transform="translate(175,38)"/>
<path d="M0 0 C6.75 0.75 6.75 0.75 9 3 C6.125 3.625 6.125 3.625 3 4 C2.34 3.34 1.68 2.68 1 2 C0.01 2.495 0.01 2.495 -1 3 C-0.67 2.01 -0.34 1.02 0 0 Z " fill="#00188A" transform="translate(183,32)"/>
<path d="M0 0 C0.66 0 1.32 0 2 0 C2.33 1.98 2.66 3.96 3 6 C2.01 6.495 2.01 6.495 1 7 C-0.32 6.01 -1.64 5.02 -3 4 C-1.68 4 -0.36 4 1 4 C0.67 2.68 0.34 1.36 0 0 Z " fill="#113775" transform="translate(10,184)"/>
<path d="M0 0 C0.66 0.66 1.32 1.32 2 2 C1.625 4.625 1.625 4.625 1 7 C-0.65 7 -2.3 7 -4 7 C-3.01 6.67 -2.02 6.34 -1 6 C-1.33 5.01 -1.66 4.02 -2 3 C-1.34 2.01 -0.68 1.02 0 0 Z " fill="#083374" transform="translate(4,131)"/>
<path d="M0 0 C0.66 0.33 1.32 0.66 2 1 C1.67 1.99 1.34 2.98 1 4 C-1.64 3.67 -4.28 3.34 -7 3 C-4.66785852 1.79371992 -2.50357861 0.8345262 0 0 Z " fill="#6980A8" transform="translate(126,113)"/>
<path d="M0 0 C2.31 0.66 4.62 1.32 7 2 C6.67 2.66 6.34 3.32 6 4 C3.03 3.505 3.03 3.505 0 3 C0 2.01 0 1.02 0 0 Z " fill="#012591" transform="translate(82,54)"/>
<path d="M0 0 C-4 2 -4 2 -8 4 C-8.33 3.01 -8.66 2.02 -9 1 C-6.04335481 -0.4783226 -3.25770263 -0.06032783 0 0 Z " fill="#001C6A" transform="translate(77,177)"/>
<path d="M0 0 C1.65 0 3.3 0 5 0 C5 1.32 5 2.64 5 4 C2.525 3.01 2.525 3.01 0 2 C0 1.34 0 0.68 0 0 Z " fill="#204785" transform="translate(138,170)"/>
<path d="M0 0 C2.31 0.33 4.62 0.66 7 1 C7 1.66 7 2.32 7 3 C5.02 3 3.04 3 1 3 C0.67 2.01 0.34 1.02 0 0 Z " fill="#022D77" transform="translate(21,161)"/>
<path d="M0 0 C4.875 1.75 4.875 1.75 6 4 C3.36 4 0.72 4 -2 4 C-1.01 3.67 -0.02 3.34 1 3 C0.67 2.01 0.34 1.02 0 0 Z " fill="#052E7A" transform="translate(93,139)"/>
<path d="M0 0 C1.98 0 3.96 0 6 0 C6.33 0.99 6.66 1.98 7 3 C4.69 2.67 2.38 2.34 0 2 C0 1.34 0 0.68 0 0 Z " fill="#28569B" transform="translate(4,75)"/>
<path d="M0 0 C1.98 0.99 1.98 0.99 4 2 C2.02 2.99 2.02 2.99 0 4 C0 2.68 0 1.36 0 0 Z M-4 4 C-2.68 4.33 -1.36 4.66 0 5 C-0.66 5.66 -1.32 6.32 -2 7 C-2.66 6.01 -3.32 5.02 -4 4 Z " fill="#002787" transform="translate(172,59)"/>
</svg>
